<?xml version="1.0" encoding="UTF-8" standalone="no"?>
<!-- Created with Inkscape (http://www.inkscape.org/) -->

<svg
   width="980.90448"
   height="206.45065"
   viewBox="0 0 259.53097 54.623403"
   version="1.1"
   id="svg1"
   inkscape:version="1.3 (0e150ed6c4, 2023-07-21)"
   sodipodi:docname="logo.svg"
   xmlns:inkscape="http://www.inkscape.org/namespaces/inkscape"
   xmlns:sodipodi="http://sodipodi.sourceforge.net/DTD/sodipodi-0.dtd"
   xmlns="http://www.w3.org/2000/svg"
   xmlns:svg="http://www.w3.org/2000/svg">
  <sodipodi:namedview
     id="namedview1"
     pagecolor="#ffffff"
     bordercolor="#000000"
     borderopacity="0.25"
     inkscape:showpageshadow="2"
     inkscape:pageopacity="0.0"
     inkscape:pagecheckerboard="0"
     inkscape:deskcolor="#d1d1d1"
     inkscape:document-units="mm"
     inkscape:zoom="0.7786055"
     inkscape:cx="794.36891"
     inkscape:cy="116.87562"
     inkscape:window-width="1920"
     inkscape:window-height="1112"
     inkscape:window-x="-8"
     inkscape:window-y="-8"
     inkscape:window-maximized="1"
     inkscape:current-layer="g47" />
  <defs
     id="defs1">
    <clipPath
       clipPathUnits="userSpaceOnUse"
       id="clipPath46">
      <path
         id="path46"
         style="fill-opacity:0;stroke:#000000;stroke-width:0.264583"
         d="m 204.49371,146.97083 a 100,100 0 0 1 -100,100 100,100 0 0 1 -99.9999965,-100 100,100 0 0 1 99.9999965,-100.000004 100,100 0 0 1 100,100.000004 z" />
    </clipPath>
  </defs>
  <g
     inkscape:label="Layer 1"
     inkscape:groupmode="layer"
     id="layer1"
     transform="translate(24.765495,-121.1883)">
    <g
       id="g47"
       transform="translate(-11.913739,-30.976288)">
      <g
         id="g48"
         transform="rotate(90,100.0543,162.61685)">
        <g
           id="g10"
           clip-path="url(#clipPath46)"
           transform="matrix(0.04556381,-0.32339916,0.32339916,0.04556381,59.274752,269.96022)">
          <path
             style="fill:#13268e;fill-opacity:0.322097;stroke:#000000;stroke-width:0.264583;stroke-opacity:1"
             d="m 1.0194508,134.5675 c 0,0 16.9908462,-36.360407 31.2631572,-37.040042 14.272311,-0.679633 10.874143,14.951942 32.962242,38.059502 22.088101,23.10755 17.330664,90.3913 60.82724,49.95309 21.24803,-19.75403 23.80075,16.96896 67.96338,-5.77689 20.84861,-10.73803 44.51602,2.37872 85.97368,15.29175 45.53774,14.18388 -56.74943,39.41877 -56.74943,39.41877 L 73.740274,277.63044 -7.8157895,226.65789 Z"
             id="path7"
             sodipodi:nodetypes="cssssscccc" />
          <path
             style="fill:#13268e;fill-opacity:0.322097;stroke:#000000;stroke-width:0.264583;stroke-opacity:1"
             d="m 5.5137908,125.80705 c 0,0 16.9908502,-36.360403 31.2631602,-37.040038 14.27231,-0.679633 10.87414,14.951938 32.96224,38.059498 22.0881,23.10755 24.806633,97.86727 68.303209,57.42906 21.24803,-19.75403 37.04005,34.66132 63.88558,-7.13616 12.35319,-19.23345 13.93249,-39.41876 39.75857,0.67963 25.82608,40.0984 -13.93249,47.91419 -13.93249,47.91419 L 78.234611,268.86999 -3.3214492,217.89744 Z"
             id="path7-5"
             sodipodi:nodetypes="cssssscccc" />
          <path
             style="fill:#2c8e13;fill-opacity:0.322097;stroke:#000000;stroke-width:0.264583;stroke-opacity:1"
             d="m -35.001144,154.95652 c 56.069794,-43.15675 17.67048,-5.09725 56.409611,-35.34096 29.420213,-22.968406 6.116703,61.50686 54.370707,85.97368 48.254006,24.46682 100.925626,-9.85469 110.780316,16.31122 9.8547,26.1659 -40.43821,63.20594 -40.43821,63.20594 L 18.010297,277.29061 Z"
             id="path8"
             sodipodi:nodetypes="csssccc" />
          <path
             style="fill:#2c8e13;fill-opacity:0.322097;stroke:#000000;stroke-width:0.264583;stroke-opacity:1"
             d="m -39.826785,160.15119 c 56.069799,-43.15675 20.389021,-9.51487 56.749433,-30.58352 32.294464,-18.71268 5.776886,56.74942 54.03089,81.21624 48.254002,24.46682 100.925632,-9.85469 110.780322,16.31122 9.8547,26.1659 -40.43822,63.20594 -40.43822,63.20594 L 13.184661,282.48528 Z"
             id="path8-1"
             sodipodi:nodetypes="csssccc" />
          <path
             style="fill:#8e1324;fill-opacity:0.322097;stroke:#000000;stroke-width:0.264583;stroke-opacity:1"
             d="m 44.516018,241.94965 c 37.71968,-32.96224 32.282609,-11.55377 73.740272,-36.70022 41.45767,-25.14646 41.83738,-11.08248 75.43936,-4.75744 56.7247,10.67753 28.2048,30.58352 28.2048,30.58352 l -43.49656,33.98169 z"
             id="path9"
             sodipodi:nodetypes="cssccc" />
          <path
             style="fill:#8e1324;fill-opacity:0.322097;stroke:#000000;stroke-width:0.264583;stroke-opacity:1"
             d="m 35.303091,245.11552 c 37.719683,-32.96224 32.282613,-11.55377 73.740269,-36.70022 41.45767,-25.14646 33.72941,-14.34875 71.02174,-7.81579 46.55492,8.1556 43.49656,20.72883 43.49656,20.72883 l -54.3707,46.89473 z"
             id="path9-7"
             sodipodi:nodetypes="cssccc" />
          <path
             style="fill:#8e8713;fill-opacity:0.322097;stroke:#000000;stroke-width:0.264583;stroke-opacity:1"
             d="M 1.6990846,145.10183 C 30.243706,109.76087 26.845537,90.391304 53.691075,144.42219 c 26.845537,54.0309 25.826087,53.35126 39.078947,61.16705 13.252858,7.81579 38.059498,-15.97139 55.729978,-14.61212 17.67048,1.35926 80.53661,38.39931 49.95309,30.58352 -30.58353,-7.81579 -22.42792,-15.63158 -41.45767,-21.74829 -19.02975,-6.1167 -16.99084,26.50572 -50.97254,18.68994 C 72.041188,210.6865 55.729975,202.87071 50.632722,194.7151 45.535468,186.55949 60.487414,175.34553 47.574371,150.5389 34.661326,125.73226 32.282608,119.95538 26.845537,129.81007 c -5.437071,9.85469 -31.6029741,42.1373 -29.5640725,30.92334 2.03890165,-11.21396 4.4176201,-15.63158 4.4176201,-15.63158 z"
             id="path10" />
          <path
             style="fill:#8e8713;fill-opacity:0.322097;stroke:#000000;stroke-width:0.264583;stroke-opacity:1"
             d="M 7.3726998,148.29402 C 35.917321,112.95306 32.519152,93.583503 59.36469,147.61438 c 26.845537,54.0309 25.826087,53.35126 39.078947,61.16705 13.252853,7.81579 38.059493,-15.97139 55.729983,-14.61212 17.67048,1.35926 80.53661,38.39931 49.95309,30.58352 -30.58353,-7.81579 -22.42792,-15.63158 -41.45767,-21.74829 -19.02976,-6.1167 -16.99085,26.50572 -50.97255,18.68994 -33.981687,-7.81579 -50.2929,-15.63158 -55.390153,-23.78719 -5.097254,-8.15561 9.854692,-19.36957 -3.058351,-44.1762 -12.913045,-24.80664 -15.291763,-30.58352 -20.728834,-20.72883 -5.437071,9.85469 -31.60297416,42.1373 -29.5640732,30.92334 2.038902,-11.21396 4.417621,-15.63158 4.417621,-15.63158 z"
             id="path10-2" />
        </g>
        <text
           xml:space="preserve"
           style="font-size:7.25822px;white-space:pre;inline-size:50.9557;display:inline;fill:#8e8713;fill-opacity:0.322097;stroke:#000000;stroke-width:0.264583;stroke-opacity:1"
           x="103.98398"
           y="231.75516"
           id="text46"
           transform="matrix(0,-4.8603894,4.8603894,0,-1005.677,752.24075)"><tspan
             x="103.98398"
             y="231.75516"
             id="tspan2"><tspan
               style="font-family:'BitstreamVeraSansMono Nerd Font Mono';-inkscape-font-specification:'BitstreamVeraSansMono Nerd Font Mono';fill:#000000;fill-opacity:1"
               id="tspan1">terrustrial</tspan></tspan></text>
        <text
           xml:space="preserve"
           style="font-size:35.2777px;fill:#8e8713;fill-opacity:0.322097;stroke:#000000;stroke-width:0.264583;stroke-opacity:1"
           x="99.22654"
           y="-15.631578"
           id="text47"><tspan
             sodipodi:role="line"
             id="tspan47"
             style="stroke-width:0.264583"
             x="99.22654"
             y="-15.631578" /></text>
      </g>
    </g>
  </g>
</svg>
